<mxfile host="app.diagrams.net" modified="2023-12-04T07:18:57.119Z" agent="Mozilla/5.0 (Macintosh; Intel Mac OS X 10_15_7) AppleWebKit/537.36 (KHTML, like Gecko) Chrome/119.0.0.0 Safari/537.36" etag="lxN39YdRT2s1V7FAW4pL" version="22.1.5" type="github">
  <diagram id="6a731a19-8d31-9384-78a2-239565b7b9f0" name="Page-1">
    <mxGraphModel dx="1674" dy="761" grid="1" gridSize="10" guides="1" tooltips="1" connect="1" arrows="1" fold="1" page="1" pageScale="1" pageWidth="1169" pageHeight="827" background="none" math="0" shadow="0">
      <root>
        <mxCell id="0" />
        <mxCell id="1" parent="0" />
        <mxCell id="bkp4SQVUInSILuSQX6_7-72" value="" style="shape=singleArrow;direction=south;whiteSpace=wrap;html=1;" parent="1" vertex="1">
          <mxGeometry x="465" y="310" width="60" height="80" as="geometry" />
        </mxCell>
        <mxCell id="Zws4f3dSjWSBuXBgF_1k-8" value="" style="group;fillColor=#fad7ac;strokeColor=#b46504;" parent="1" vertex="1" connectable="0">
          <mxGeometry x="150" y="240" width="690" height="70" as="geometry" />
        </mxCell>
        <mxCell id="bkp4SQVUInSILuSQX6_7-68" value="HULK平台上的LVS" style="rounded=1;whiteSpace=wrap;html=1;fillColor=#dae8fc;strokeColor=#6c8ebf;" parent="Zws4f3dSjWSBuXBgF_1k-8" vertex="1">
          <mxGeometry width="690" height="70" as="geometry" />
        </mxCell>
        <mxCell id="bkp4SQVUInSILuSQX6_7-83" value="LVS" style="swimlane;horizontal=0;whiteSpace=wrap;html=1;fillColor=#f8cecc;strokeColor=#b85450;" parent="Zws4f3dSjWSBuXBgF_1k-8" vertex="1">
          <mxGeometry width="19.43661971830986" height="70" as="geometry">
            <mxRectangle x="120" y="590" width="40" height="70" as="alternateBounds" />
          </mxGeometry>
        </mxCell>
        <mxCell id="Zws4f3dSjWSBuXBgF_1k-13" value="" style="group" parent="1" vertex="1" connectable="0">
          <mxGeometry x="150" y="80" width="690" height="70" as="geometry" />
        </mxCell>
        <mxCell id="Zws4f3dSjWSBuXBgF_1k-9" value="" style="rounded=1;whiteSpace=wrap;html=1;fillColor=#dae8fc;strokeColor=#6c8ebf;gradientColor=#7ea6e0;" parent="Zws4f3dSjWSBuXBgF_1k-13" vertex="1">
          <mxGeometry width="690" height="70" as="geometry" />
        </mxCell>
        <mxCell id="Zws4f3dSjWSBuXBgF_1k-10" value="接入层" style="swimlane;horizontal=0;whiteSpace=wrap;html=1;fillColor=#f8cecc;strokeColor=#b85450;" parent="Zws4f3dSjWSBuXBgF_1k-13" vertex="1">
          <mxGeometry width="19.43661971830986" height="70" as="geometry">
            <mxRectangle x="120" y="590" width="40" height="70" as="alternateBounds" />
          </mxGeometry>
        </mxCell>
        <mxCell id="Zws4f3dSjWSBuXBgF_1k-12" value="业务系统" style="rounded=0;whiteSpace=wrap;html=1;fillColor=#f8cecc;gradientColor=#ea6b66;strokeColor=#b85450;" parent="Zws4f3dSjWSBuXBgF_1k-13" vertex="1">
          <mxGeometry x="289.11971830985914" y="12.5" width="111.7605633802817" height="45" as="geometry" />
        </mxCell>
        <mxCell id="Zws4f3dSjWSBuXBgF_1k-18" value="" style="shape=singleArrow;direction=south;whiteSpace=wrap;html=1;" parent="1" vertex="1">
          <mxGeometry x="465" y="150" width="60" height="90" as="geometry" />
        </mxCell>
        <mxCell id="Zws4f3dSjWSBuXBgF_1k-19" value="gRPC接口调用" style="text;html=1;align=center;verticalAlign=middle;resizable=0;points=[];autosize=1;strokeColor=none;fillColor=none;" parent="1" vertex="1">
          <mxGeometry x="510" y="180" width="100" height="30" as="geometry" />
        </mxCell>
        <mxCell id="bgyWp8Zf_vsbOoBo96fd-1" value="" style="group" parent="1" vertex="1" connectable="0">
          <mxGeometry x="150" y="420" width="710" height="110" as="geometry" />
        </mxCell>
        <mxCell id="bkp4SQVUInSILuSQX6_7-74" value="华为云负载均衡（ELB服务）" style="rounded=1;whiteSpace=wrap;html=1;fillColor=#d5e8d4;strokeColor=#82b366;" parent="bgyWp8Zf_vsbOoBo96fd-1" vertex="1">
          <mxGeometry y="-30" width="690" height="70" as="geometry" />
        </mxCell>
        <mxCell id="bkp4SQVUInSILuSQX6_7-84" value="网关层" style="swimlane;horizontal=0;whiteSpace=wrap;html=1;fillColor=#e1d5e7;strokeColor=#9673a6;" parent="bgyWp8Zf_vsbOoBo96fd-1" vertex="1">
          <mxGeometry y="-30" width="20" height="70" as="geometry" />
        </mxCell>
        <mxCell id="bkp4SQVUInSILuSQX6_7-88" value="流量分发到Pod" style="text;html=1;align=center;verticalAlign=middle;resizable=0;points=[];autosize=1;strokeColor=none;fillColor=none;" parent="bgyWp8Zf_vsbOoBo96fd-1" vertex="1">
          <mxGeometry x="350" y="50" width="100" height="30" as="geometry" />
        </mxCell>
        <mxCell id="bkp4SQVUInSILuSQX6_7-87" value="" style="shape=singleArrow;direction=south;whiteSpace=wrap;html=1;" parent="bgyWp8Zf_vsbOoBo96fd-1" vertex="1">
          <mxGeometry x="310" y="40" width="60" height="70" as="geometry" />
        </mxCell>
        <mxCell id="bgyWp8Zf_vsbOoBo96fd-3" value="" style="group" parent="1" vertex="1" connectable="0">
          <mxGeometry x="140" y="530" width="700" height="100" as="geometry" />
        </mxCell>
        <mxCell id="bkp4SQVUInSILuSQX6_7-97" value="" style="rounded=1;whiteSpace=wrap;html=1;fillColor=#d0cee2;strokeColor=#56517e;" parent="bgyWp8Zf_vsbOoBo96fd-3" vertex="1">
          <mxGeometry width="700" height="100" as="geometry" />
        </mxCell>
        <mxCell id="bkp4SQVUInSILuSQX6_7-98" value="K8s集群" style="swimlane;horizontal=0;whiteSpace=wrap;html=1;fillColor=#b0e3e6;strokeColor=#0e8088;" parent="bgyWp8Zf_vsbOoBo96fd-3" vertex="1">
          <mxGeometry width="19.718309859154928" height="100" as="geometry" />
        </mxCell>
        <mxCell id="Zws4f3dSjWSBuXBgF_1k-1" value="Pod1" style="rounded=0;whiteSpace=wrap;html=1;fillColor=#fad7ac;strokeColor=#b46504;" parent="bgyWp8Zf_vsbOoBo96fd-3" vertex="1">
          <mxGeometry x="69.01408450704226" y="20" width="118.30985915492958" height="60" as="geometry" />
        </mxCell>
        <mxCell id="bkp4SQVUInSILuSQX6_7-93" value="Pod2" style="rounded=0;whiteSpace=wrap;html=1;fillColor=#fad7ac;strokeColor=#b46504;container=0;" parent="bgyWp8Zf_vsbOoBo96fd-3" vertex="1">
          <mxGeometry x="273.59154929577466" y="20" width="150.35211267605635" height="60" as="geometry" />
        </mxCell>
        <mxCell id="39KW0sN5sWv0ID_aYbIo-5" value="Pod3" style="rounded=0;whiteSpace=wrap;html=1;fillColor=#fad7ac;strokeColor=#b46504;container=0;" vertex="1" parent="bgyWp8Zf_vsbOoBo96fd-3">
          <mxGeometry x="512.6760563380282" y="23.22" width="147.88732394366198" height="56.78" as="geometry" />
        </mxCell>
        <mxCell id="39KW0sN5sWv0ID_aYbIo-4" value="负载均衡转发" style="text;html=1;align=center;verticalAlign=middle;resizable=0;points=[];autosize=1;strokeColor=none;fillColor=none;" vertex="1" parent="1">
          <mxGeometry x="500" y="328" width="100" height="30" as="geometry" />
        </mxCell>
        <mxCell id="39KW0sN5sWv0ID_aYbIo-6" value="存储层（Gauss Redis/ElasticSearch）" style="rounded=1;whiteSpace=wrap;html=1;fillColor=#d5e8d4;strokeColor=#82b366;" vertex="1" parent="1">
          <mxGeometry x="140" y="710" width="700" height="70" as="geometry" />
        </mxCell>
        <mxCell id="39KW0sN5sWv0ID_aYbIo-7" value="网关层" style="swimlane;horizontal=0;whiteSpace=wrap;html=1;fillColor=#e1d5e7;strokeColor=#9673a6;" vertex="1" parent="1">
          <mxGeometry x="140" y="710" width="20" height="70" as="geometry" />
        </mxCell>
        <mxCell id="39KW0sN5sWv0ID_aYbIo-8" value="" style="shape=singleArrow;direction=south;whiteSpace=wrap;html=1;" vertex="1" parent="1">
          <mxGeometry x="460" y="630" width="60" height="80" as="geometry" />
        </mxCell>
      </root>
    </mxGraphModel>
  </diagram>
</mxfile>
